# xmcd
#
# Track frame offsets:
#	150
#	16246
#	40565
#	58455
#	75812
#	90970
#	115552
#	132833
#	146839
#	158100
#	176925
#	184756
#	203182
#	220665
#	241984
#
# Disc length: 3613
#
# Revision: 1
# Processed by: cddbd v1.5.1PL0 Copyright (c) Steve Scherf et al.
# Submitted via: CDex 1.51
# Normalized: r0:DSETVAR1
#
DISCID=c00e1b0f
DTITLE=Various Artist - The Rapture - Your Are Here CD2
DYEAR=1900
DGENRE=Post Punk
TTITLE0=Special Ed - I Got It Made
TTITLE1=Junkyard Band - The Word
TTITLE2=Munk - Mein Schatzi (Discotecha Dub)
TTITLE3=In Deep - Buffalo Bill (Rapappella)
TTITLE4=Jungle Brothers - Waht U Waitin 4
TTITLE5=Junior - Mama Used To Say
TTITLE6=Frankie Smith - Double Dutch Bus
TTITLE7=The B-52's - Mesopotamia
TTITLE8=The Police - Voices In My Head
TTITLE9=Yazoo - Don't Go
TTITLE10=Chic - Dance, Dance, Dance
TTITLE11=Liquid Liquid - Optimo
TTITLE12=Moddyman - I Feel Dub
TTITLE13=Adonis - Percy X - Now Way Back - Club X
TTITLE14=Marshall Jefferson - Ride The Rhythm
EXTD=
EXTT0=
EXTT1=
EXTT2=
EXTT3=
EXTT4=
EXTT5=
EXTT6=
EXTT7=
EXTT8=
EXTT9=
EXTT10=
EXTT11=
EXTT12=
EXTT13=
EXTT14=
PLAYORDER=
